<svg width="50" height="50" viewBox="0 0 50 50" fill="none" xmlns="http://www.w3.org/2000/svg">
<path d="M43.1843 12.3823H37.5299C36.7928 6.12186 31.4552 1.24901 25 1.24901C18.5448 1.24901 13.2072 6.12186 12.47 12.3823H6.81563C5.79081 12.3823 4.96008 13.213 4.96008 14.2378V46.8955C4.96008 47.9203 5.79081 48.751 6.81563 48.751H43.1843C44.2092 48.751 45.0399 47.9203 45.0399 46.8955V14.2378C45.0399 13.213 44.2092 12.3823 43.1843 12.3823ZM25 4.9601C29.4054 4.9601 33.0734 8.1753 33.7822 12.3823H16.2178C16.9266 8.1753 20.5945 4.9601 25 4.9601ZM41.3288 45.0399H8.67118V16.0934H12.3823V21.66C12.3823 22.6848 13.213 23.5156 14.2378 23.5156C15.2626 23.5156 16.0934 22.6848 16.0934 21.66V16.0934H33.9066V21.66C33.9066 22.6848 34.7373 23.5156 35.7622 23.5156C36.787 23.5156 37.6177 22.6848 37.6177 21.66V16.0934H41.3288V45.0399Z" fill="#272A5C"/>
</svg>
