<svg width="26" height="33" viewBox="0 0 26 33" fill="none" xmlns="http://www.w3.org/2000/svg">
<path d="M10.0787 1.992H15.5939V2.92003H17.5857V1.86209C17.586 0.835373 16.7511 0 15.7249 0H9.94775C8.92154 0 8.08667 0.835373 8.08667 1.86209V2.92003H10.0787V1.992Z" fill="#DE6E6E"/>
<path d="M22.1855 10.812H3.48705C2.9747 10.812 2.57136 11.2491 2.61265 11.7599L4.17589 31.0898C4.263 32.1689 5.16308 33 6.24443 33H19.4279C20.5092 33 21.4093 32.1689 21.4964 31.0896L23.0596 11.7599C23.1012 11.2491 22.6979 10.812 22.1855 10.812ZM8.01463 30.9383C7.99373 30.9395 7.97283 30.9403 7.95219 30.9403C7.43002 30.9403 6.99169 30.5337 6.95921 30.0054L5.97957 14.1366C5.94583 13.5875 6.36352 13.115 6.91238 13.0812C7.45948 13.048 7.93406 13.4647 7.9678 14.014L8.94718 29.8828C8.98117 30.4319 8.56349 30.9043 8.01463 30.9383ZM13.8434 29.9443C13.8434 30.4941 13.3975 30.94 12.8474 30.94C12.2972 30.94 11.8514 30.4941 11.8514 29.9443V14.0752C11.8514 13.5251 12.2972 13.0792 12.8474 13.0792C13.3972 13.0792 13.8434 13.5251 13.8434 14.0752V29.9443ZM19.693 14.1339L18.7577 30.0027C18.7267 30.5319 18.2876 30.94 17.7644 30.94C17.7448 30.94 17.7249 30.9395 17.705 30.9385C17.1559 30.906 16.7369 30.4347 16.7694 29.8856L17.7045 14.0165C17.7367 13.4674 18.2065 13.0485 18.7572 13.081C19.3063 13.1132 19.7252 13.5848 19.693 14.1339Z" fill="#DE6E6E"/>
<path d="M25.6297 7.73842L24.9756 5.77763C24.8031 5.26075 24.3192 4.91205 23.7741 4.91205H1.89806C1.35323 4.91205 0.869076 5.26075 0.696866 5.77763L0.042767 7.73842C-0.0833698 8.11658 0.0807843 8.50229 0.387188 8.69464C0.512066 8.77294 0.659855 8.82002 0.822247 8.82002H24.8502C25.0126 8.82002 25.1606 8.77294 25.2852 8.69439C25.5916 8.50204 25.7558 8.11633 25.6297 7.73842Z" fill="#DE6E6E"/>
</svg>
