<svg width="315" height="140" viewBox="0 0 315 140" fill="none" xmlns="http://www.w3.org/2000/svg">
<path d="M81.4844 106.351V127.521C81.4844 128.69 80.5398 129.638 79.375 129.638H70.0938C68.929 129.638 67.9844 128.69 67.9844 127.521V106.351C67.9844 105.182 68.929 104.234 70.0938 104.234H79.375C80.5398 104.234 81.4844 105.181 81.4844 106.351ZM243.906 104.234H234.625C233.46 104.234 232.516 105.182 232.516 106.351V127.521C232.516 128.69 233.46 129.638 234.625 129.638H243.906C245.071 129.638 246.016 128.69 246.016 127.521V106.351C246.016 105.181 245.071 104.234 243.906 104.234Z" fill="#D7AF87"/>
<path d="M265 102.117V114.819C265 115.988 264.055 116.936 262.891 116.936H51.1094C49.9446 116.936 49 115.988 49 114.819V102.117C49 100.948 49.9446 100 51.1094 100H262.891C264.055 100 265 100.948 265 102.117Z" fill="#EBC9A0"/>
<path d="M262.891 100H250.234C251.399 100 252.344 100.948 252.344 102.117V114.819C252.344 115.988 251.399 116.936 250.234 116.936H262.891C264.055 116.936 265 115.988 265 114.819V102.117C265 100.948 264.055 100 262.891 100Z" fill="#D7AF87"/>
<rect x="68" y="11" width="178" height="79" rx="10" fill="#FAF7F7"/>
</svg>
