<svg width="247" height="64" viewBox="0 0 247 64" fill="none" xmlns="http://www.w3.org/2000/svg">
<path d="M2.41989 7.99667C2.41989 9.43621 3.02188 10.7449 3.96413 11.6871C4.90638 12.6294 6.21505 13.2314 7.65459 13.2314H48.2235V2.76196H7.65459C4.77551 2.76196 2.41989 5.11758 2.41989 7.99667Z" fill="#2FDF84"/>
<path d="M2.41989 7.99664V56.4176C2.41989 59.2967 4.77551 61.6523 7.65459 61.6523H53.4582V13.2313H48.2235H7.65459C6.21505 13.2313 4.90638 12.6294 3.96413 11.6871C3.02188 10.7449 2.41989 9.43619 2.41989 7.99664Z" fill="#F3F3F1"/>
<path d="M29.9021 13.2314V48.5656L21.3957 43.3309L12.8893 48.5656V13.2314H29.9021Z" fill="#2FDF84"/>
<path d="M8.30893 7.99667C8.30893 5.11758 10.6645 2.76196 13.5436 2.76196H7.65459C4.77551 2.76196 2.41989 5.11758 2.41989 7.99667C2.41989 9.43621 3.02188 10.7449 3.96413 11.6871C4.90638 12.6294 6.21505 13.2314 7.65459 13.2314H13.5436C12.1041 13.2314 10.7954 12.6294 9.85317 11.6871C8.91092 10.7449 8.30893 9.43621 8.30893 7.99667Z" fill="#00B871"/>
<path d="M18.7783 13.2314H12.8893V48.5656L18.7783 44.9406V13.2314Z" fill="#00B871"/>
<path d="M8.30893 56.4176V13.2313H7.65459C6.21505 13.2313 4.90638 12.6294 3.96413 11.6871C3.02188 10.7449 2.41989 9.43619 2.41989 7.99664V56.4176C2.41989 59.2967 4.77551 61.6523 7.65459 61.6523H13.5436C10.6645 61.6523 8.30893 59.2967 8.30893 56.4176Z" fill="#D5DBE1"/>
<path d="M53.4582 63.6154H7.65459C3.68407 63.6154 0.456879 60.3882 0.456879 56.4177V7.99667C0.456879 4.02614 3.68407 0.79895 7.65459 0.79895H48.2235C49.3071 0.79895 50.1866 1.67838 50.1866 2.76196V11.2684H53.4582C54.5418 11.2684 55.4212 12.1478 55.4212 13.2314V61.6524C55.4212 62.736 54.5418 63.6154 53.4582 63.6154ZM4.38291 14.4066V56.4177C4.38291 58.221 5.85124 59.6894 7.65459 59.6894H51.4952V15.1944H7.65459C6.47679 15.1944 5.36441 14.9117 4.38291 14.4066ZM7.65459 4.72498C5.85124 4.72498 4.38291 6.19331 4.38291 7.99667C4.38291 9.80002 5.85124 11.2684 7.65459 11.2684H46.2605V4.72498H7.65459Z" fill="#3C43A7"/>
<path d="M29.9021 50.5286C29.5435 50.5286 29.1901 50.4318 28.8708 50.2381L21.3957 45.6368L13.9205 50.2381C13.3159 50.615 12.5569 50.6281 11.9313 50.28C11.3084 49.9319 10.9263 49.2749 10.9263 48.5656V13.2314H14.8523V45.0531L20.3644 41.6611C20.9978 41.2737 21.7909 41.2737 22.4243 41.6611L27.9364 45.0531V13.2314H31.8651V48.5656C31.8651 49.2749 31.4829 49.9319 30.86 50.28C30.5616 50.4449 30.2319 50.5286 29.9021 50.5286Z" fill="#3C43A7"/>
<path d="M89.2634 32.4206C90.3465 32.701 91.2406 33.3382 91.9459 34.3324C92.6511 35.3265 93.0037 36.448 93.0037 37.6971C93.0037 39.8637 92.3615 41.5333 91.0769 42.7059C89.8176 43.8529 88.0041 44.4265 85.6365 44.4265H74V20.5294H84.3142C86.9336 20.5294 88.8353 21.0265 90.0191 22.0206C91.228 23.0147 91.8325 24.5951 91.8325 26.7618C91.8325 27.9343 91.6058 29.0049 91.1525 29.9735C90.6991 30.9422 90.0694 31.6814 89.2634 32.1912V32.4206ZM85.1453 27.6794C85.1453 26.7873 85.0068 26.1882 84.7297 25.8824C84.4779 25.5765 83.9741 25.4235 83.2185 25.4235H80.6116V29.9735H83.2185C83.9741 29.9735 84.4779 29.8206 84.7297 29.5147C85.0068 29.1833 85.1453 28.5716 85.1453 27.6794ZM84.1253 39.5324C84.8557 39.5324 85.372 39.3539 85.6743 38.9971C86.0017 38.6147 86.1654 37.9647 86.1654 37.0471C86.1654 36.1804 86.0143 35.5686 85.712 35.2118C85.4098 34.8549 84.8935 34.6765 84.163 34.6765H80.6116V39.5324H84.1253Z" fill="white"/>
<path d="M104.974 44.9618C102.682 44.9618 100.844 44.6177 99.4584 43.9294C98.0731 43.2412 97.053 42.1706 96.3981 40.7176C95.7432 39.2392 95.4158 37.2892 95.4158 34.8676C95.4158 32.4461 95.7432 30.4961 96.3981 29.0176C97.053 27.5392 98.0731 26.4686 99.4584 25.8059C100.844 25.1176 102.682 24.7735 104.974 24.7735C107.292 24.7735 109.143 25.1176 110.528 25.8059C111.939 26.4686 112.959 27.5392 113.588 29.0176C114.243 30.4961 114.571 32.4461 114.571 34.8676C114.571 37.2892 114.243 39.2392 113.588 40.7176C112.933 42.1706 111.901 43.2412 110.49 43.9294C109.105 44.6177 107.266 44.9618 104.974 44.9618ZM105.919 39.8382C106.523 39.8382 106.926 39.7745 107.128 39.6471C107.355 39.4941 107.468 39.2137 107.468 38.8059V29.8971H104.105C103.501 29.8971 103.085 29.9735 102.859 30.1265C102.657 30.2539 102.556 30.5216 102.556 30.9294V39.8382H105.919Z" fill="white"/>
<path d="M126.927 44.9618C124.635 44.9618 122.796 44.6177 121.411 43.9294C120.026 43.2412 119.006 42.1706 118.351 40.7176C117.696 39.2392 117.369 37.2892 117.369 34.8676C117.369 32.4461 117.696 30.4961 118.351 29.0176C119.006 27.5392 120.026 26.4686 121.411 25.8059C122.796 25.1176 124.635 24.7735 126.927 24.7735C129.244 24.7735 131.096 25.1176 132.481 25.8059C133.891 26.4686 134.911 27.5392 135.541 29.0176C136.196 30.4961 136.523 32.4461 136.523 34.8676C136.523 37.2892 136.196 39.2392 135.541 40.7176C134.886 42.1706 133.854 43.2412 132.443 43.9294C131.058 44.6177 129.219 44.9618 126.927 44.9618ZM127.872 39.8382C128.476 39.8382 128.879 39.7745 129.081 39.6471C129.307 39.4941 129.421 39.2137 129.421 38.8059V29.8971H126.058C125.454 29.8971 125.038 29.9735 124.811 30.1265C124.61 30.2539 124.509 30.5216 124.509 30.9294V39.8382H127.872Z" fill="white"/>
<path d="M146.84 36.2824V44.4265H140.19V19.5735L146.84 19V32.1912H148.464L151.487 25.3088H158.514L154.018 34.3706L158.703 44.4265H151.751L148.54 36.2824H146.84Z" fill="white"/>
<path d="M160.352 31.0059C160.352 28.8392 161.007 27.2588 162.317 26.2647C163.627 25.2451 165.68 24.7353 168.475 24.7353C171.17 24.7353 173.739 25.0157 176.183 25.5765L175.389 30.2412C174.18 29.9098 172.694 29.7441 170.931 29.7441C169.596 29.7441 168.45 29.8588 167.493 30.0882V32.2294C169.987 32.5098 171.913 32.8922 173.273 33.3765C174.659 33.8608 175.641 34.5235 176.22 35.3647C176.825 36.1804 177.127 37.2637 177.127 38.6147C177.127 40.8578 176.397 42.4892 174.936 43.5088C173.5 44.5029 171.183 45 167.984 45C166.599 45 165.214 44.8853 163.828 44.6559C162.443 44.452 161.184 44.1461 160.05 43.7382L160.919 38.8441C162.783 39.6088 164.811 39.9912 167.002 39.9912C167.783 39.9912 168.778 39.8765 169.987 39.6471V37.4294C167.317 37.1235 165.302 36.7539 163.942 36.3206C162.607 35.8618 161.675 35.2373 161.146 34.4471C160.617 33.6314 160.352 32.4843 160.352 31.0059Z" fill="white"/>
<path d="M187.96 29.7059V39.6088C188.766 39.7363 189.547 39.8127 190.303 39.8382L190.001 44.3882C188.313 44.7706 186.877 44.9618 185.694 44.9618C184.208 44.9618 183.099 44.6559 182.369 44.0441C181.664 43.4069 181.311 42.4255 181.311 41.1V29.7059H179.233V25.3088H181.311V22.0206L187.96 20.3382V25.3088H190.756V29.7059H187.96Z" fill="white"/>
<path d="M202.858 44.9618C200.566 44.9618 198.727 44.6177 197.342 43.9294C195.956 43.2412 194.936 42.1706 194.281 40.7176C193.626 39.2392 193.299 37.2892 193.299 34.8676C193.299 32.4461 193.626 30.4961 194.281 29.0176C194.936 27.5392 195.956 26.4686 197.342 25.8059C198.727 25.1176 200.566 24.7735 202.858 24.7735C205.175 24.7735 207.026 25.1176 208.411 25.8059C209.822 26.4686 210.842 27.5392 211.472 29.0176C212.126 30.4961 212.454 32.4461 212.454 34.8676C212.454 37.2892 212.126 39.2392 211.472 40.7176C210.817 42.1706 209.784 43.2412 208.374 43.9294C206.988 44.6177 205.15 44.9618 202.858 44.9618ZM203.802 39.8382C204.407 39.8382 204.81 39.7745 205.011 39.6471C205.238 39.4941 205.351 39.2137 205.351 38.8059V29.8971H201.989C201.384 29.8971 200.969 29.9735 200.742 30.1265C200.54 30.2539 200.44 30.5216 200.44 30.9294V39.8382H203.802Z" fill="white"/>
<path d="M221.297 27.9471C222.984 26.2902 224.823 25.2196 226.813 24.7353L227.228 31.2735C226.573 31.3755 225.78 31.6176 224.848 32C223.916 32.3569 223.223 32.701 222.77 33.0324V44.4265H216.121V25.3088H219.408L221.297 27.9471Z" fill="white"/>
<path d="M238.99 39.9912C241.131 39.9912 243.36 39.6598 245.678 38.9971L246.509 43.7C244.015 44.5412 241.27 44.9618 238.273 44.9618C234.948 44.9618 232.555 44.1843 231.094 42.6294C229.633 41.049 228.903 38.4618 228.903 34.8676C228.903 31.299 229.646 28.7245 231.132 27.1441C232.643 25.5637 235.074 24.7735 238.424 24.7735C240.665 24.7735 242.391 24.9647 243.6 25.3471C244.834 25.7294 245.703 26.3667 246.207 27.2588C246.736 28.151 247 29.4255 247 31.0824C247 32.7137 246.673 33.9755 246.018 34.8676C245.363 35.7598 244.255 36.3971 242.693 36.7794C241.131 37.1618 238.915 37.3529 236.044 37.3529V39.7618C236.749 39.9147 237.731 39.9912 238.99 39.9912ZM238.764 29.7441C237.731 29.7441 237.013 29.8588 236.61 30.0882C236.232 30.3176 236.044 30.751 236.044 31.3882V33.8353H238.273C239.305 33.8353 240.011 33.7206 240.388 33.4912C240.791 33.2363 240.993 32.7775 240.993 32.1147V29.7441H238.764Z" fill="white"/>
</svg>
