<svg width="60" height="60" viewBox="0 0 60 60" fill="none" xmlns="http://www.w3.org/2000/svg">
<path d="M30 60C46.5685 60 60 46.5685 60 30C60 13.4315 46.5685 0 30 0C13.4315 0 0 13.4315 0 30C0 46.5685 13.4315 60 30 60Z" fill="#F15249"/>
<path d="M17.4133 43.533L33.5962 59.716C47.224 58.1072 58.0126 47.4132 59.7161 33.7854L43.4385 17.5078L17.4133 43.533Z" fill="#AD0E0E"/>
<path d="M44.1956 36.6246C45.5205 37.9495 45.5205 40.2208 44.1956 41.5457L41.5457 44.1956C40.2208 45.5205 37.9495 45.5205 36.6246 44.1956L15.8044 23.3754C14.4795 22.0504 14.4795 19.7792 15.8044 18.4542L18.5489 15.7098C19.8738 14.3848 22.1451 14.3848 23.47 15.7098L44.1956 36.6246Z" fill="white"/>
<path d="M33.2177 25.552L25.5521 33.2176L36.6246 44.1955C37.9495 45.5205 40.2208 45.5205 41.5458 44.1955L44.2902 41.4511C45.6152 40.1261 45.6152 37.8548 44.2902 36.5299L33.2177 25.552Z" fill="#D6D6D6"/>
<path d="M36.6246 15.8045C37.9495 14.4796 40.2208 14.4796 41.5457 15.8045L44.2902 18.549C45.6151 19.8739 45.6151 22.1452 44.2902 23.4701L23.3754 44.1956C22.0505 45.5206 19.7792 45.5206 18.4543 44.1956L15.8044 41.5458C14.4795 40.2209 14.4795 37.9496 15.8044 36.6247L36.6246 15.8045Z" fill="white"/>
</svg>
