<svg width="60" height="60" viewBox="0 0 60 60" fill="none" xmlns="http://www.w3.org/2000/svg">
<g clip-path="url(#clip0)">
<path d="M30 60C46.5685 60 60 46.5685 60 30C60 13.4315 46.5685 0 30 0C13.4315 0 0 13.4315 0 30C0 46.5685 13.4315 60 30 60Z" fill="#32BA7C"/>
<path d="M22.3344 43.5333L37.7603 58.9591C50.5363 55.5522 60 43.9118 60 30.0001C60 29.7162 60 29.4323 60 29.1484L47.8865 17.9812L22.3344 43.5333Z" fill="#0AA06E"/>
<path d="M30.7571 36.7193C32.082 38.0442 32.082 40.3155 30.7571 41.6405L28.0126 44.3849C26.6877 45.7099 24.4164 45.7099 23.0915 44.3849L11.0725 32.2714C9.74763 30.9464 9.74763 28.6752 11.0725 27.3502L13.817 24.6058C15.142 23.2808 17.4132 23.2808 18.7382 24.6058L30.7571 36.7193Z" fill="white"/>
<path d="M41.2618 15.8045C42.5867 14.4796 44.858 14.4796 46.1829 15.8045L48.9274 18.549C50.2524 19.8739 50.2524 22.1452 48.9274 23.4701L28.1072 44.1956C26.7823 45.5206 24.511 45.5206 23.1861 44.1956L20.4416 41.4512C19.1167 40.1262 19.1167 37.855 20.4416 36.53L41.2618 15.8045Z" fill="white"/>
</g>
<defs>
<clipPath id="clip0">
<rect width="60" height="60" fill="white"/>
</clipPath>
</defs>
</svg>
